<svg width="40" height="41" viewBox="0 0 40 41" fill="none" xmlns="http://www.w3.org/2000/svg">
<path d="M20.0002 4.32947C17.8115 4.32947 15.6442 4.76056 13.6221 5.59814C11.6 6.43572 9.76269 7.66338 8.21505 9.21102C5.08944 12.3366 3.3335 16.5759 3.3335 20.9961C3.3335 28.3628 8.11683 34.6128 14.7335 36.8295C15.5668 36.9628 15.8335 36.4461 15.8335 35.9961V33.1795C11.2168 34.1795 10.2335 30.9461 10.2335 30.9461C9.46683 29.0128 8.3835 28.4961 8.3835 28.4961C6.86683 27.4628 8.50016 27.4961 8.50016 27.4961C10.1668 27.6128 11.0502 29.2128 11.0502 29.2128C12.5002 31.7461 14.9502 30.9961 15.9002 30.5961C16.0502 29.5128 16.4835 28.7795 16.9502 28.3628C13.2502 27.9461 9.36683 26.5128 9.36683 20.1628C9.36683 18.3128 10.0002 16.8295 11.0835 15.6461C10.9168 15.2295 10.3335 13.4961 11.2502 11.2461C11.2502 11.2461 12.6502 10.7961 15.8335 12.9461C17.1502 12.5795 18.5835 12.3961 20.0002 12.3961C21.4168 12.3961 22.8502 12.5795 24.1668 12.9461C27.3502 10.7961 28.7502 11.2461 28.7502 11.2461C29.6668 13.4961 29.0835 15.2295 28.9168 15.6461C30.0002 16.8295 30.6335 18.3128 30.6335 20.1628C30.6335 26.5295 26.7335 27.9295 23.0168 28.3461C23.6168 28.8628 24.1668 29.8795 24.1668 31.4295V35.9961C24.1668 36.4461 24.4335 36.9795 25.2835 36.8295C31.9002 34.5961 36.6668 28.3628 36.6668 20.9961C36.6668 18.8074 36.2357 16.6402 35.3982 14.6181C34.5606 12.596 33.3329 10.7587 31.7853 9.21102C30.2376 7.66338 28.4003 6.43572 26.3782 5.59814C24.3561 4.76056 22.1889 4.32947 20.0002 4.32947Z" fill="black"/>
</svg>
