<svg width="40" height="41" viewBox="0 0 40 41" fill="none" xmlns="http://www.w3.org/2000/svg">
<path d="M13.0002 4.32947H27.0002C32.3335 4.32947 36.6668 8.6628 36.6668 13.9961V27.9961C36.6668 30.5599 35.6484 33.0186 33.8355 34.8315C32.0227 36.6444 29.5639 37.6628 27.0002 37.6628H13.0002C7.66683 37.6628 3.3335 33.3295 3.3335 27.9961V13.9961C3.3335 11.4324 4.35195 8.97362 6.1648 7.16077C7.97765 5.34792 10.4364 4.32947 13.0002 4.32947ZM12.6668 7.6628C11.0755 7.6628 9.54941 8.29494 8.42419 9.42016C7.29897 10.5454 6.66683 12.0715 6.66683 13.6628V28.3295C6.66683 31.6461 9.35016 34.3295 12.6668 34.3295H27.3335C28.9248 34.3295 30.4509 33.6973 31.5761 32.5721C32.7014 31.4469 33.3335 29.9208 33.3335 28.3295V13.6628C33.3335 10.3461 30.6502 7.6628 27.3335 7.6628H12.6668ZM28.7502 10.1628C29.3027 10.1628 29.8326 10.3823 30.2233 10.773C30.614 11.1637 30.8335 11.6936 30.8335 12.2461C30.8335 12.7987 30.614 13.3286 30.2233 13.7193C29.8326 14.11 29.3027 14.3295 28.7502 14.3295C28.1976 14.3295 27.6677 14.11 27.277 13.7193C26.8863 13.3286 26.6668 12.7987 26.6668 12.2461C26.6668 11.6936 26.8863 11.1637 27.277 10.773C27.6677 10.3823 28.1976 10.1628 28.7502 10.1628ZM20.0002 12.6628C22.2103 12.6628 24.3299 13.5408 25.8927 15.1036C27.4555 16.6664 28.3335 18.786 28.3335 20.9961C28.3335 23.2063 27.4555 25.3259 25.8927 26.8887C24.3299 28.4515 22.2103 29.3295 20.0002 29.3295C17.79 29.3295 15.6704 28.4515 14.1076 26.8887C12.5448 25.3259 11.6668 23.2063 11.6668 20.9961C11.6668 18.786 12.5448 16.6664 14.1076 15.1036C15.6704 13.5408 17.79 12.6628 20.0002 12.6628ZM20.0002 15.9961C18.6741 15.9961 17.4023 16.5229 16.4646 17.4606C15.5269 18.3983 15.0002 19.6701 15.0002 20.9961C15.0002 22.3222 15.5269 23.594 16.4646 24.5317C17.4023 25.4694 18.6741 25.9961 20.0002 25.9961C21.3262 25.9961 22.598 25.4694 23.5357 24.5317C24.4734 23.594 25.0002 22.3222 25.0002 20.9961C25.0002 19.6701 24.4734 18.3983 23.5357 17.4606C22.598 16.5229 21.3262 15.9961 20.0002 15.9961Z" fill="black"/>
</svg>
