<svg width="40" height="41" viewBox="0 0 40 41" fill="none" xmlns="http://www.w3.org/2000/svg">
<path d="M31.6667 5.99609C32.5507 5.99609 33.3986 6.34728 34.0237 6.9724C34.6488 7.59753 35 8.44537 35 9.32943V32.6628C35 33.5468 34.6488 34.3947 34.0237 35.0198C33.3986 35.6449 32.5507 35.9961 31.6667 35.9961H8.33333C7.44928 35.9961 6.60143 35.6449 5.97631 35.0198C5.35119 34.3947 5 33.5468 5 32.6628V9.32943C5 8.44537 5.35119 7.59753 5.97631 6.9724C6.60143 6.34728 7.44928 5.99609 8.33333 5.99609H31.6667ZM30.8333 31.8294V22.9961C30.8333 21.5551 30.2609 20.1731 29.2419 19.1541C28.223 18.1352 26.841 17.5628 25.4 17.5628C23.9833 17.5628 22.3333 18.4294 21.5333 19.7294V17.8794H16.8833V31.8294H21.5333V23.6128C21.5333 22.3294 22.5667 21.2794 23.85 21.2794C24.4688 21.2794 25.0623 21.5253 25.4999 21.9628C25.9375 22.4004 26.1833 22.9939 26.1833 23.6128V31.8294H30.8333ZM11.4667 15.2628C12.2093 15.2628 12.9215 14.9678 13.4466 14.4427C13.9717 13.9176 14.2667 13.2054 14.2667 12.4628C14.2667 10.9128 13.0167 9.64609 11.4667 9.64609C10.7196 9.64609 10.0032 9.94285 9.47498 10.4711C8.94675 10.9993 8.65 11.7157 8.65 12.4628C8.65 14.0128 9.91667 15.2628 11.4667 15.2628ZM13.7833 31.8294V17.8794H9.16667V31.8294H13.7833Z" fill="black"/>
</svg>
