<svg width="79" height="35" viewBox="0 0 79 35" fill="none" xmlns="http://www.w3.org/2000/svg">
<path d="M5.01562 32.2656C5.59375 32.4688 6.21094 32.625 6.86719 32.7344C7.52344 32.8281 8.17188 32.875 8.8125 32.875C9.46875 32.875 10.0938 32.8047 10.6875 32.6641V0.835938H22.6641V21.4844C22.6641 25.5938 21.625 28.7188 19.5469 30.8594C17.2188 33.25 13.5859 34.4453 8.64844 34.4453C5.39844 34.4453 2.92969 33.7031 1.24219 32.2188L0.84375 31.8203C0.28125 31.2266 0.0234375 30.7109 0.0703125 30.2734C0.179688 29.5391 0.507812 29.2031 1.05469 29.2656C1.58594 29.3594 2 29.6641 2.29688 30.1797C2.60938 30.6953 2.99219 31.1172 3.44531 31.4453C3.91406 31.7734 4.4375 32.0469 5.01562 32.2656ZM47.8228 24.2734L49.9088 24.3672C52.94 24.3672 55.44 23.3672 57.4088 21.3672C59.4088 19.3516 60.4556 16.7422 60.5494 13.5391C60.7213 8.60156 58.3463 5.26562 53.4244 3.53125C51.5806 2.875 49.1822 2.54688 46.2291 2.54688H44.2603V34H32.3072V0.835938H41.2838C46.1275 0.835938 49.0494 0.90625 50.0494 1.04688C51.0494 1.1875 52.0884 1.36719 53.1666 1.58594C54.2603 1.80469 55.4322 2.28125 56.6822 3.01562C57.9478 3.75 59.0181 4.625 59.8931 5.64062C61.6588 7.70312 62.5103 10.125 62.4478 12.9062C62.3541 16.4531 61.315 19.4062 59.3306 21.7656C57.315 24.1406 54.5338 25.6094 50.9869 26.1719C49.9556 26.3125 49.1431 26.3828 48.5494 26.3828C47.1431 26.3828 46.44 26 46.44 25.2344C46.44 24.9531 46.565 24.7266 46.815 24.5547C47.065 24.3672 47.4009 24.2734 47.8228 24.2734ZM67.8019 31.4453C67.5675 30.8203 67.4503 30.1641 67.4503 29.4766C67.4503 28.7891 67.5831 28.1641 67.8487 27.6016C68.13 27.0234 68.5206 26.5156 69.0206 26.0781C70.0831 25.125 71.4112 24.6484 73.005 24.6484C74.6456 24.6484 75.9737 25.1875 76.9894 26.2656C77.9269 27.25 78.3956 28.4062 78.3956 29.7344C78.3956 31.0625 77.8644 32.1719 76.8019 33.0625C75.7081 33.9844 74.3956 34.4453 72.8644 34.4453C70.2706 34.4453 68.5831 33.4453 67.8019 31.4453Z" fill="#524F4B"/>
</svg>
